<svg id="svg" version="1.1" xmlns="http://www.w3.org/2000/svg" xmlns:xlink="http://www.w3.org/1999/xlink" width="400" height="400" viewBox="0, 0, 400,400"><g id="svgg"><path id="path0" d="M202.648 7.300 C 202.304 9.335,202.084 11.450,202.160 12.000 C 202.236 12.550,202.321 13.302,202.349 13.671 C 202.400 14.342,207.632 21.669,209.471 23.645 C 212.436 26.830,214.254 35.148,212.298 36.578 C 211.914 36.859,211.594 37.428,211.586 37.844 C 211.578 38.260,211.314 39.050,211.000 39.600 C 210.686 40.150,210.422 41.074,210.414 41.654 C 210.394 43.148,209.655 44.668,207.700 47.238 C 206.765 48.467,206.000 49.609,206.000 49.775 C 206.000 49.941,205.665 50.554,205.256 51.138 C 204.847 51.722,204.193 53.190,203.803 54.400 C 203.413 55.610,202.963 56.780,202.802 57.000 C 202.641 57.220,202.398 58.526,202.261 59.902 C 202.039 62.127,200.464 66.213,199.601 66.800 C 199.440 66.910,198.920 67.765,198.446 68.700 C 197.972 69.635,197.440 70.400,197.265 70.400 C 196.832 70.400,194.534 76.124,193.973 78.600 C 193.521 80.593,192.339 83.660,191.582 84.800 C 191.363 85.130,190.900 86.030,190.552 86.800 C 190.205 87.570,189.690 88.470,189.407 88.800 C 189.125 89.130,188.761 89.850,188.597 90.400 C 188.433 90.950,187.782 92.110,187.150 92.979 C 186.517 93.847,186.000 94.840,186.000 95.185 C 186.000 95.530,185.642 96.480,185.205 97.296 C 184.366 98.861,183.159 103.025,182.171 107.761 C 181.591 110.543,179.292 116.000,178.700 116.000 C 178.535 116.000,178.400 116.182,178.400 116.404 C 178.400 116.626,177.807 117.661,177.082 118.704 C 175.829 120.505,174.400 123.694,174.400 124.687 C 174.400 124.941,174.192 125.655,173.938 126.274 C 172.949 128.683,172.025 131.427,172.011 132.000 C 172.002 132.330,171.765 133.050,171.485 133.600 C 171.204 134.150,170.734 135.343,170.439 136.250 C 170.005 137.591,167.729 140.066,158.302 149.450 C 150.205 157.510,146.966 160.509,147.581 159.376 C 149.463 155.907,147.693 152.889,145.107 155.159 C 143.838 156.274,143.681 156.679,143.015 160.570 C 142.332 164.553,142.206 164.867,140.639 166.488 C 134.505 172.835,133.328 174.488,133.510 176.509 C 133.718 178.820,132.527 180.678,130.123 181.794 C 127.086 183.203,124.810 186.472,124.802 189.433 C 124.793 192.802,123.890 194.850,121.222 197.550 C 119.182 199.614,118.370 200.789,117.719 202.619 C 116.808 205.176,115.200 211.534,115.200 212.576 C 115.200 212.925,114.977 213.568,114.704 214.005 C 114.309 214.638,114.309 214.962,114.704 215.595 C 116.299 218.149,115.224 220.779,111.315 223.880 C 109.103 225.634,107.938 228.011,107.726 231.200 C 107.463 235.154,107.385 235.336,104.641 238.326 C 103.233 239.860,101.984 241.449,101.865 241.858 C 101.746 242.266,101.348 243.860,100.980 245.400 C 99.943 249.740,98.293 252.800,96.992 252.800 C 94.260 252.800,89.429 247.294,91.200 246.200 C 91.420 246.064,91.600 245.593,91.600 245.153 C 91.600 244.713,92.185 243.626,92.900 242.736 C 94.132 241.204,94.207 240.918,94.342 237.268 L 94.483 233.417 96.446 231.009 C 97.525 229.684,98.607 228.360,98.851 228.067 C 99.302 227.523,99.958 225.128,100.731 221.200 C 102.666 211.362,102.421 209.138,99.743 212.237 C 99.004 213.092,98.400 213.937,98.400 214.115 C 98.400 214.293,98.032 215.195,97.582 216.119 C 94.607 222.229,93.516 225.752,93.296 229.966 C 93.070 234.292,92.569 235.600,91.138 235.600 C 90.762 235.600,90.340 235.960,90.200 236.400 C 90.060 236.840,89.791 237.200,89.602 237.200 C 88.624 237.200,86.693 241.767,86.340 244.914 C 86.136 246.737,85.719 248.448,85.388 248.813 C 85.065 249.170,84.800 249.684,84.800 249.955 C 84.800 250.225,84.355 251.244,83.810 252.219 C 83.266 253.194,82.373 255.363,81.825 257.038 C 79.554 263.994,77.778 264.473,73.000 259.419 C 71.240 257.557,68.720 255.329,67.400 254.467 C 66.080 253.605,63.650 251.381,62.000 249.524 C 60.350 247.667,57.741 245.169,56.202 243.974 C 52.286 240.932,46.783 235.970,40.000 229.364 C 36.810 226.257,33.390 223.162,32.400 222.486 C 31.410 221.810,27.368 218.079,23.417 214.195 C 13.926 204.864,11.417 203.251,7.620 204.044 C 4.777 204.637,4.864 205.461,8.094 208.528 C 9.692 210.045,33.415 233.677,60.812 261.043 C 108.831 309.010,111.308 311.407,111.719 310.300 C 112.371 308.542,116.580 313.146,116.288 315.297 C 116.206 315.900,116.220 316.314,116.317 316.216 C 116.520 316.013,117.600 317.010,117.600 317.400 C 117.600 317.826,118.687 318.775,118.952 318.581 C 119.089 318.481,119.112 318.518,119.003 318.663 C 118.644 319.144,119.648 319.956,120.295 319.708 C 120.717 319.546,120.834 319.622,120.642 319.932 C 120.483 320.189,120.554 320.400,120.800 320.400 C 121.046 320.400,121.153 320.553,121.037 320.740 C 120.805 321.116,122.575 322.800,123.203 322.800 C 123.421 322.800,123.600 322.993,123.600 323.229 C 123.600 323.464,123.870 323.927,124.200 324.257 C 124.733 324.790,124.800 324.765,124.800 324.029 C 124.800 322.492,127.069 322.932,128.862 324.817 C 129.708 325.706,130.400 326.656,130.400 326.928 C 130.400 327.401,131.768 328.800,132.231 328.800 C 132.353 328.800,133.116 329.295,133.926 329.900 C 134.736 330.505,135.579 331.130,135.800 331.290 C 138.960 333.577,141.414 335.991,142.458 337.841 C 143.369 339.456,144.294 340.417,145.949 341.468 C 147.187 342.254,149.198 343.820,150.417 344.949 C 151.636 346.077,153.918 348.048,155.489 349.329 C 157.059 350.609,160.192 353.645,162.452 356.075 C 164.712 358.505,167.484 361.175,168.612 362.009 C 169.741 362.843,171.640 364.552,172.832 365.808 C 174.024 367.063,176.057 368.812,177.349 369.693 C 178.640 370.575,181.070 372.631,182.749 374.263 C 198.470 389.553,197.190 389.340,207.470 378.380 C 210.245 375.421,214.138 371.200,216.121 369.000 C 218.104 366.800,222.443 362.300,225.763 358.999 C 235.118 349.700,272.778 311.316,275.432 308.376 C 279.937 303.384,285.392 296.706,287.454 293.659 C 289.732 290.294,298.744 281.090,299.638 281.216 C 300.945 281.400,301.501 281.014,305.286 277.300 C 310.673 272.014,315.800 263.813,319.041 255.300 C 319.565 253.925,320.177 252.485,320.402 252.100 C 321.020 251.041,323.200 245.551,323.200 245.053 C 323.200 244.812,323.583 243.622,324.051 242.408 C 324.518 241.193,325.167 239.480,325.492 238.600 C 325.816 237.720,326.257 236.665,326.472 236.257 C 326.686 235.848,327.196 234.498,327.606 233.257 C 329.617 227.160,332.117 220.157,332.411 219.795 C 332.592 219.572,333.377 217.502,334.155 215.195 C 337.397 205.585,337.975 203.962,338.501 203.000 C 338.969 202.144,342.644 191.801,343.191 189.800 C 343.372 189.140,343.897 187.844,344.360 186.919 C 344.822 185.995,345.200 185.038,345.200 184.793 C 345.200 184.549,345.544 183.505,345.965 182.474 C 347.239 179.351,349.188 172.724,349.457 170.600 C 349.596 169.500,349.876 168.389,350.078 168.131 C 350.302 167.846,350.298 167.377,350.068 166.931 C 349.860 166.529,349.188 165.145,348.575 163.856 C 347.671 161.956,347.150 161.368,345.830 160.756 C 341.908 158.939,340.302 157.768,339.387 156.058 C 338.881 155.111,338.181 154.021,337.832 153.635 C 337.483 153.249,336.919 152.118,336.580 151.122 C 335.552 148.105,330.879 142.877,315.337 127.358 C 308.031 120.063,307.144 119.029,305.900 116.353 C 304.869 114.136,303.890 112.802,301.973 111.000 C 297.978 107.246,295.249 104.451,292.000 100.788 C 290.350 98.927,287.465 95.784,285.589 93.802 C 283.714 91.821,281.564 89.390,280.812 88.400 C 280.059 87.410,278.252 85.430,276.794 84.000 C 275.337 82.570,273.213 80.015,272.076 78.323 C 270.938 76.631,267.965 73.121,265.469 70.523 C 258.024 62.773,254.003 57.976,252.760 55.361 C 251.365 52.429,251.345 52.235,252.495 52.851 C 253.238 53.249,253.191 53.119,252.219 52.089 C 251.574 51.406,250.874 50.954,250.662 51.085 C 250.450 51.216,250.390 51.140,250.529 50.915 C 250.811 50.459,249.487 49.084,249.068 49.399 C 248.920 49.510,248.888 49.482,248.997 49.337 C 249.261 48.982,248.415 47.998,247.851 48.006 C 247.603 48.009,247.670 48.187,248.000 48.400 C 248.330 48.613,248.397 48.791,248.149 48.794 C 247.901 48.797,247.451 48.495,247.149 48.123 C 246.776 47.663,246.760 47.543,247.100 47.747 C 247.375 47.912,247.600 47.915,247.600 47.754 C 247.600 47.386,203.908 3.600,203.542 3.600 C 203.394 3.600,202.992 5.265,202.648 7.300 M218.105 35.700 C 218.923 36.321,220.400 39.739,220.400 41.010 C 220.400 41.528,220.580 42.064,220.800 42.200 C 221.557 42.668,221.267 46.361,220.400 47.292 C 219.960 47.764,219.600 48.364,219.600 48.624 C 219.600 48.884,218.971 49.525,218.203 50.048 C 217.434 50.572,216.804 51.135,216.803 51.300 C 216.801 51.465,216.513 51.600,216.163 51.600 C 215.813 51.600,215.076 51.954,214.526 52.387 L 213.526 53.173 212.627 52.087 C 210.546 49.570,209.946 44.965,211.463 43.156 C 213.325 40.935,214.400 39.272,214.400 38.611 C 214.400 36.543,216.767 34.684,218.105 35.700 M214.331 59.182 C 214.512 62.388,214.138 63.250,211.972 64.618 C 208.686 66.692,206.513 65.541,207.002 61.986 C 207.274 60.009,207.503 59.636,210.472 56.323 L 212.154 54.445 213.166 55.457 C 214.006 56.296,214.204 56.930,214.331 59.182 M205.142 82.855 C 205.356 87.570,203.420 90.867,199.929 91.735 C 198.620 92.060,196.630 89.941,197.205 88.834 C 197.386 88.485,197.871 87.429,198.282 86.486 C 199.251 84.267,204.059 78.773,204.598 79.270 C 204.817 79.471,205.061 81.084,205.142 82.855 M155.500 128.832 C 154.464 129.436,154.604 130.483,155.700 130.328 C 156.278 130.246,156.646 129.878,156.728 129.300 C 156.867 128.318,156.574 128.206,155.500 128.832 M352.808 178.080 C 352.365 178.806,352.002 179.704,352.001 180.076 C 352.001 180.448,351.820 180.864,351.600 181.000 C 351.380 181.136,351.200 181.572,351.200 181.970 C 351.200 182.367,350.846 183.142,350.413 183.692 C 349.981 184.242,349.508 185.433,349.363 186.339 C 349.219 187.244,348.861 188.183,348.570 188.425 C 348.278 188.667,347.918 189.706,347.771 190.733 C 347.623 191.760,347.269 192.870,346.985 193.200 C 346.700 193.530,346.340 194.520,346.183 195.400 C 346.027 196.280,345.667 197.270,345.385 197.600 C 345.102 197.930,344.746 199.044,344.594 200.076 C 344.441 201.108,343.983 202.253,343.576 202.622 C 343.168 202.991,342.718 204.076,342.574 205.033 C 342.431 205.991,342.078 206.969,341.791 207.207 C 341.504 207.445,341.148 208.522,341.000 209.600 C 340.852 210.678,340.485 211.764,340.185 212.013 C 339.885 212.262,339.522 213.250,339.378 214.209 C 339.234 215.167,338.790 216.247,338.391 216.608 C 337.987 216.974,337.548 218.126,337.398 219.212 C 337.251 220.283,336.885 221.364,336.585 221.613 C 336.285 221.862,335.921 222.855,335.776 223.820 C 335.631 224.785,335.278 225.769,334.991 226.007 C 334.704 226.245,334.348 227.322,334.200 228.400 C 334.052 229.478,333.676 230.571,333.365 230.829 C 333.054 231.087,332.800 231.638,332.800 232.054 C 332.800 232.470,332.646 233.123,332.457 233.505 C 332.269 233.887,331.842 234.740,331.509 235.400 C 331.176 236.060,330.785 237.257,330.641 238.060 C 330.497 238.863,330.124 240.033,329.814 240.660 C 329.139 242.020,328.518 246.224,329.040 245.894 C 329.449 245.635,330.361 243.841,331.425 241.200 C 331.824 240.210,332.361 239.130,332.618 238.800 C 332.876 238.470,333.279 237.660,333.514 237.000 C 333.749 236.340,334.688 233.730,335.600 231.200 C 336.512 228.670,337.452 226.060,337.687 225.400 C 337.923 224.740,338.251 224.020,338.415 223.800 C 338.580 223.580,339.744 220.340,341.003 216.600 C 342.262 212.860,343.513 209.440,343.783 209.000 C 344.052 208.560,345.403 204.870,346.783 200.800 C 348.164 196.730,349.707 192.483,350.213 191.362 C 353.560 183.946,355.601 173.499,352.808 178.080 M96.954 257.386 C 98.767 260.152,94.678 265.600,90.789 265.600 C 87.963 265.600,93.036 256.762,96.054 256.428 C 96.194 256.413,96.599 256.844,96.954 257.386 " stroke="none" fill="#fb9f1a" fill-rule="evenodd"></path><path id="path1" d="M394.678 198.168 C 393.401 198.650,391.377 199.825,390.180 200.780 C 386.019 204.100,201.024 390.108,200.200 391.800 C 199.298 393.651,199.125 398.485,199.932 399.292 C 200.314 399.674,220.785 379.429,295.309 304.968 C 347.499 252.823,392.315 208.108,394.900 205.601 C 400.005 200.652,400.459 199.746,398.674 198.070 C 397.585 197.047,397.657 197.045,394.678 198.168 " stroke="none" fill="#a93b06" fill-rule="evenodd"></path><path id="path2" d="M199.800 0.394 C 199.360 0.583,166.960 32.802,127.800 71.992 C 88.640 111.183,45.195 154.532,31.255 168.324 C 1.895 197.372,0.245 199.040,0.067 199.840 C -0.108 200.626,0.837 201.787,1.189 201.218 C 1.332 200.987,3.384 200.410,5.751 199.936 C 10.977 198.889,12.291 198.095,16.557 193.409 C 18.268 191.529,23.028 186.857,27.134 183.025 C 31.240 179.194,39.190 171.425,44.800 165.762 C 50.410 160.098,61.676 148.790,69.836 140.632 C 77.995 132.475,106.345 103.941,132.836 77.225 C 159.326 50.509,183.293 26.389,186.094 23.625 C 191.966 17.833,197.018 12.280,197.834 10.720 C 198.506 9.437,201.035 -0.165,200.651 0.025 C 200.623 0.039,200.240 0.205,199.800 0.394 " stroke="none" fill="#fbe95c" fill-rule="evenodd"></path><path id="path3" d="M199.700 0.276 C 200.617 0.515,200.587 1.081,199.416 5.699 C 197.943 11.504,196.736 13.128,186.094 23.625 C 183.293 26.389,159.326 50.509,132.836 77.225 C 106.345 103.941,77.995 132.475,69.836 140.632 C 61.676 148.790,50.410 160.098,44.800 165.762 C 39.190 171.425,31.240 179.194,27.134 183.025 C 23.028 186.857,18.284 191.512,16.592 193.370 C 11.899 198.526,11.338 198.827,3.500 200.396 C 0.637 200.969,0.624 201.339,3.376 203.942 C 5.644 206.087,6.123 206.387,5.756 205.431 C 5.378 204.445,7.191 203.846,10.220 203.956 C 12.319 204.032,15.941 206.840,23.400 214.176 C 27.360 218.070,31.410 221.810,32.400 222.486 C 33.390 223.162,36.810 226.257,40.000 229.364 C 46.783 235.970,52.286 240.932,56.202 243.974 C 57.741 245.169,60.350 247.667,62.000 249.524 C 63.650 251.381,66.080 253.605,67.400 254.467 C 68.720 255.329,71.240 257.557,73.000 259.419 C 77.778 264.473,79.554 263.994,81.825 257.038 C 82.373 255.363,83.266 253.194,83.810 252.219 C 84.355 251.244,84.800 250.225,84.800 249.955 C 84.800 249.684,85.065 249.170,85.388 248.813 C 85.719 248.448,86.136 246.737,86.340 244.914 C 86.693 241.767,88.624 237.200,89.602 237.200 C 89.791 237.200,90.060 236.840,90.200 236.400 C 90.340 235.960,90.762 235.600,91.138 235.600 C 92.569 235.600,93.070 234.292,93.296 229.966 C 93.516 225.752,94.607 222.229,97.582 216.119 C 98.032 215.195,98.400 214.293,98.400 214.115 C 98.400 213.937,99.004 213.092,99.743 212.237 C 102.421 209.138,102.666 211.362,100.731 221.200 C 99.958 225.128,99.302 227.523,98.851 228.067 C 98.607 228.360,97.525 229.684,96.446 231.009 L 94.483 233.417 94.342 237.268 C 94.207 240.918,94.132 241.204,92.900 242.736 C 92.185 243.626,91.600 244.713,91.600 245.153 C 91.600 245.593,91.420 246.064,91.200 246.200 C 89.429 247.294,94.260 252.800,96.992 252.800 C 98.293 252.800,99.943 249.740,100.980 245.400 C 101.348 243.860,101.746 242.266,101.865 241.858 C 101.984 241.449,103.233 239.860,104.641 238.326 C 107.385 235.336,107.463 235.154,107.726 231.200 C 107.938 228.011,109.103 225.634,111.315 223.880 C 115.224 220.779,116.299 218.149,114.704 215.595 C 114.309 214.962,114.309 214.638,114.704 214.005 C 114.977 213.568,115.200 212.925,115.200 212.576 C 115.200 211.534,116.808 205.176,117.719 202.619 C 118.370 200.789,119.182 199.614,121.222 197.550 C 123.890 194.850,124.793 192.802,124.802 189.433 C 124.810 186.472,127.086 183.203,130.123 181.794 C 132.527 180.678,133.718 178.820,133.510 176.509 C 133.328 174.488,134.505 172.835,140.639 166.488 C 142.206 164.867,142.332 164.553,143.015 160.570 C 143.681 156.679,143.838 156.274,145.107 155.159 C 147.693 152.889,149.463 155.907,147.581 159.376 C 146.966 160.509,150.205 157.510,158.302 149.450 C 167.729 140.066,170.005 137.591,170.439 136.250 C 170.734 135.343,171.204 134.150,171.485 133.600 C 171.765 133.050,172.002 132.330,172.011 132.000 C 172.025 131.427,172.949 128.683,173.938 126.274 C 174.192 125.655,174.400 124.941,174.400 124.687 C 174.400 123.694,175.829 120.505,177.082 118.704 C 177.807 117.661,178.400 116.626,178.400 116.404 C 178.400 116.182,178.535 116.000,178.700 116.000 C 179.292 116.000,181.591 110.543,182.171 107.761 C 183.159 103.025,184.366 98.861,185.205 97.296 C 185.642 96.480,186.000 95.530,186.000 95.185 C 186.000 94.840,186.517 93.847,187.150 92.979 C 187.782 92.110,188.433 90.950,188.597 90.400 C 188.761 89.850,189.125 89.130,189.407 88.800 C 189.690 88.470,190.205 87.570,190.552 86.800 C 190.900 86.030,191.363 85.130,191.582 84.800 C 192.339 83.660,193.521 80.593,193.973 78.600 C 194.534 76.124,196.832 70.400,197.265 70.400 C 197.440 70.400,197.972 69.635,198.446 68.700 C 198.920 67.765,199.440 66.910,199.601 66.800 C 200.464 66.213,202.039 62.127,202.261 59.902 C 202.398 58.526,202.641 57.220,202.802 57.000 C 202.963 56.780,203.413 55.610,203.803 54.400 C 204.193 53.190,204.847 51.722,205.256 51.138 C 205.665 50.554,206.000 49.941,206.000 49.775 C 206.000 49.609,206.765 48.467,207.700 47.238 C 209.655 44.668,210.394 43.148,210.414 41.654 C 210.422 41.074,210.686 40.150,211.000 39.600 C 211.314 39.050,211.578 38.260,211.586 37.844 C 211.594 37.428,211.914 36.859,212.298 36.578 C 214.254 35.148,212.436 26.830,209.471 23.645 C 207.898 21.955,202.402 14.385,202.375 13.871 C 202.361 13.612,202.272 12.680,202.177 11.800 C 202.081 10.920,202.325 8.637,202.719 6.726 L 203.434 3.252 201.887 1.626 C 201.036 0.732,200.038 0.021,199.670 0.046 C 199.076 0.088,199.079 0.113,199.700 0.276 M215.300 36.599 C 214.805 37.364,214.400 38.269,214.400 38.611 C 214.400 39.272,213.325 40.935,211.463 43.156 C 209.946 44.965,210.546 49.570,212.627 52.087 L 213.526 53.173 214.526 52.387 C 215.076 51.954,215.813 51.600,216.163 51.600 C 216.513 51.600,216.801 51.465,216.803 51.300 C 216.804 51.135,217.434 50.572,218.203 50.048 C 218.971 49.525,219.600 48.884,219.600 48.624 C 219.600 48.364,219.960 47.764,220.400 47.292 C 221.267 46.361,221.557 42.668,220.800 42.200 C 220.580 42.064,220.400 41.528,220.400 41.010 C 220.400 36.839,217.032 33.926,215.300 36.599 M210.472 56.323 C 207.503 59.636,207.274 60.009,207.002 61.986 C 206.513 65.541,208.686 66.692,211.972 64.618 C 214.789 62.839,215.453 57.744,213.166 55.457 L 212.154 54.445 210.472 56.323 M201.615 81.838 C 200.193 83.452,198.693 85.544,198.282 86.486 C 197.871 87.429,197.386 88.485,197.205 88.834 C 196.630 89.941,198.620 92.060,199.929 91.735 C 203.420 90.867,205.356 87.570,205.142 82.855 C 204.942 78.456,204.665 78.376,201.615 81.838 M156.728 129.300 C 156.646 129.878,156.278 130.246,155.700 130.328 C 154.604 130.483,154.464 129.436,155.500 128.832 C 156.574 128.206,156.867 128.318,156.728 129.300 M95.157 256.728 C 92.187 257.985,88.438 265.600,90.789 265.600 C 94.678 265.600,98.767 260.152,96.954 257.386 C 96.268 256.340,96.165 256.302,95.157 256.728 " stroke="none" fill="#fcbd2b" fill-rule="evenodd"></path><path id="path4" d="M251.797 52.405 C 250.861 53.919,255.782 60.440,265.469 70.523 C 267.965 73.121,270.938 76.631,272.076 78.323 C 273.213 80.015,275.337 82.570,276.794 84.000 C 278.252 85.430,280.059 87.410,280.812 88.400 C 281.564 89.390,283.714 91.821,285.589 93.802 C 287.465 95.784,290.350 98.927,292.000 100.788 C 295.249 104.451,297.978 107.246,301.973 111.000 C 303.890 112.802,304.869 114.136,305.900 116.353 C 307.144 119.029,308.031 120.063,315.337 127.358 C 330.879 142.877,335.552 148.105,336.580 151.122 C 336.919 152.118,337.483 153.249,337.832 153.635 C 338.181 154.021,338.881 155.111,339.387 156.058 C 340.302 157.768,341.908 158.939,345.830 160.756 C 347.150 161.368,347.671 161.956,348.575 163.856 C 349.188 165.145,349.860 166.529,350.068 166.931 C 350.298 167.377,350.302 167.846,350.078 168.131 C 349.876 168.389,349.596 169.500,349.457 170.600 C 349.188 172.724,347.239 179.351,345.965 182.474 C 345.544 183.505,345.200 184.549,345.200 184.793 C 345.200 185.038,344.822 185.995,344.360 186.919 C 343.897 187.844,343.372 189.140,343.191 189.800 C 342.644 191.801,338.969 202.144,338.501 203.000 C 337.975 203.962,337.397 205.585,334.155 215.195 C 333.377 217.502,332.592 219.572,332.411 219.795 C 332.117 220.157,329.617 227.160,327.606 233.257 C 327.196 234.498,326.686 235.848,326.472 236.257 C 326.257 236.665,325.816 237.720,325.492 238.600 C 325.167 239.480,324.518 241.193,324.051 242.408 C 323.583 243.622,323.200 244.812,323.200 245.053 C 323.200 245.551,321.020 251.041,320.402 252.100 C 320.177 252.485,319.565 253.925,319.041 255.300 C 315.800 263.813,310.673 272.014,305.286 277.300 C 301.501 281.014,300.945 281.400,299.638 281.216 C 298.744 281.090,289.732 290.294,287.454 293.659 C 285.392 296.706,279.937 303.384,275.432 308.376 C 272.778 311.316,235.118 349.700,225.763 358.999 C 222.443 362.300,218.104 366.800,216.121 369.000 C 209.312 376.554,202.422 383.761,200.712 385.118 C 197.616 387.575,195.442 386.592,188.000 379.367 C 186.790 378.192,184.427 375.896,182.749 374.263 C 181.070 372.631,178.640 370.575,177.349 369.693 C 176.057 368.812,174.024 367.063,172.832 365.808 C 171.640 364.552,169.741 362.843,168.612 362.009 C 167.484 361.175,164.712 358.505,162.452 356.075 C 160.192 353.645,157.059 350.609,155.489 349.329 C 153.918 348.048,151.636 346.077,150.417 344.949 C 149.198 343.820,147.187 342.254,145.949 341.468 C 144.294 340.417,143.369 339.456,142.458 337.841 C 141.414 335.991,138.960 333.577,135.800 331.290 C 135.579 331.130,134.736 330.505,133.926 329.900 C 133.116 329.295,132.353 328.800,132.231 328.800 C 131.768 328.800,130.400 327.401,130.400 326.928 C 130.400 325.816,127.356 323.200,126.062 323.200 C 123.105 323.200,123.697 323.842,161.900 362.079 C 182.305 382.503,199.060 399.390,199.133 399.606 C 199.207 399.823,199.544 400.000,199.882 400.000 C 200.399 400.000,200.413 399.898,199.971 399.365 C 199.133 398.355,199.273 393.701,200.200 391.800 C 201.023 390.111,386.015 204.104,390.167 200.790 C 391.357 199.841,393.438 198.663,394.791 198.173 C 396.144 197.683,397.326 197.207,397.417 197.116 C 397.589 196.944,367.282 166.545,366.388 165.992 C 366.111 165.821,340.482 140.283,309.436 109.240 C 278.390 78.198,252.756 52.800,252.471 52.800 C 252.186 52.800,252.064 52.620,252.200 52.400 C 252.336 52.180,252.357 52.000,252.247 52.000 C 252.137 52.000,251.935 52.182,251.797 52.405 M354.254 178.750 C 353.932 180.762,351.325 188.897,350.213 191.362 C 349.707 192.483,348.164 196.730,346.783 200.800 C 345.403 204.870,344.052 208.560,343.783 209.000 C 343.513 209.440,342.262 212.860,341.003 216.600 C 339.744 220.340,338.580 223.580,338.415 223.800 C 338.251 224.020,337.923 224.740,337.687 225.400 C 337.452 226.060,336.512 228.670,335.600 231.200 C 334.688 233.730,333.749 236.340,333.514 237.000 C 333.279 237.660,332.876 238.470,332.618 238.800 C 332.361 239.130,331.824 240.210,331.425 241.200 C 330.361 243.841,329.449 245.635,329.040 245.894 C 328.518 246.224,329.139 242.020,329.814 240.660 C 330.124 240.033,330.497 238.863,330.641 238.060 C 330.785 237.257,331.176 236.060,331.509 235.400 C 331.842 234.740,332.269 233.887,332.457 233.505 C 332.646 233.123,332.800 232.470,332.800 232.054 C 332.800 231.638,333.054 231.087,333.365 230.829 C 333.676 230.571,334.052 229.478,334.200 228.400 C 334.348 227.322,334.704 226.245,334.991 226.007 C 335.278 225.769,335.631 224.785,335.776 223.820 C 335.921 222.855,336.285 221.862,336.585 221.613 C 336.885 221.364,337.251 220.283,337.398 219.212 C 337.548 218.126,337.987 216.974,338.391 216.608 C 338.790 216.247,339.234 215.167,339.378 214.209 C 339.522 213.250,339.885 212.262,340.185 212.013 C 340.485 211.764,340.852 210.678,341.000 209.600 C 341.148 208.522,341.504 207.445,341.791 207.207 C 342.078 206.969,342.431 205.991,342.574 205.033 C 342.718 204.076,343.168 202.991,343.576 202.622 C 343.983 202.253,344.441 201.108,344.594 200.076 C 344.746 199.044,345.102 197.930,345.385 197.600 C 345.667 197.270,346.027 196.280,346.183 195.400 C 346.340 194.520,346.700 193.530,346.985 193.200 C 347.269 192.870,347.623 191.760,347.771 190.733 C 347.918 189.706,348.278 188.667,348.570 188.425 C 348.861 188.183,349.219 187.244,349.363 186.339 C 349.508 185.433,349.981 184.242,350.413 183.692 C 350.846 183.142,351.200 182.367,351.200 181.970 C 351.200 181.572,351.380 181.136,351.600 181.000 C 351.820 180.864,352.001 180.448,352.001 180.076 C 352.004 179.032,353.555 176.725,354.049 177.030 C 354.310 177.191,354.392 177.886,354.254 178.750 M111.600 310.443 C 111.600 310.689,111.309 310.774,110.944 310.634 C 110.583 310.495,111.888 311.990,113.844 313.956 C 115.800 315.922,117.466 317.465,117.548 317.384 C 117.629 317.304,117.404 316.947,117.048 316.590 C 116.691 316.234,116.400 315.578,116.400 315.132 C 116.400 314.686,116.111 313.712,115.757 312.967 C 114.877 311.111,111.600 309.121,111.600 310.443 " stroke="none" fill="#ee6b0e" fill-rule="evenodd"></path></g></svg>